<?xml version="1.0" encoding="UTF-8"?>
<!DOCTYPE svg PUBLIC "-//W3C//DTD SVG 1.1//EN" "http://www.w3.org/Graphics/SVG/1.1/DTD/svg11.dtd">
<svg xmlns="http://www.w3.org/2000/svg" xml:space="preserve" width="8.6786cm" height="8.6786cm" version="1.1" style="shape-rendering:geometricPrecision; text-rendering:geometricPrecision; image-rendering:optimizeQuality; fill-rule:evenodd; clip-rule:evenodd"
viewBox="0 0 8679 8679"
 xmlns:xlink="http://www.w3.org/1999/xlink">
 <defs>
  <style type="text/css">
   <![CDATA[
    .str0 {stroke:white;stroke-width:141.1}
    .fil2 {fill:#FEFEFE}
    .fil1 {fill:#9DB572}
    .fil0 {fill:#B6D383}
    .fil3 {fill:#FEFEFE;fill-rule:nonzero}
   ]]>
  </style>
 </defs>
 <g id="Layer_x0020_3">
  <metadata id="CorelCorpID_0Corel-Layer"/>
  <g id="_821160960">
   <circle class="fil0" cx="4339" cy="4339" r="4339"/>
   <path class="fil1" d="M8045 2080c402,658 634,1432 634,2259 0,2308 -1803,4195 -4077,4331l-625 -355 -5 -3 -69 -68c-52,-60 -100,-121 -141,-185 -132,-200 -209,-416 -209,-633 0,-217 77,-433 209,-633 140,-213 343,-408 584,-568 -249,-251 -419,-263 -705,-812 -150,-205 -86,-656 31,-889 336,-486 420,-504 674,-745 -241,-160 -444,-355 -584,-568 -132,-200 -209,-416 -209,-633 0,-217 77,-433 209,-633 140,-213 343,-408 584,-568 244,-162 450,-360 592,-576 78,-118 137,-241 172,-367l3 -9 3 -9 5 3 2924 1661z"/>
   <path class="fil2" d="M4964 6843l-195 0 -33 0 -397 0 24 -41 -24 -47 397 0 81 0 90 0c20,29 39,59 57,88zm-1128 -5932l503 0 -29 23 28 22 -28 23 26 20 -426 0c-26,-29 -51,-58 -74,-88zm530 88l-27 -20 29 -23 -29 -22 30 -23 474 0c-24,30 -48,59 -74,88l-403 0zm-227 219l200 0 -23 42 23 46 -86 0c-13,-9 -26,-19 -39,-29l-1 0c-25,-20 -49,-39 -74,-59zm224 88l-24 -46 24 -42 176 0c-17,14 -34,28 -51,41l0 0 0 0 0 0 0 0 -1 1 0 0 0 0 0 0 0 0 -1 0 0 0 0 1 0 0 -1 1 0 0 0 0 -1 0 0 0 0 0 0 0 0 0 0 0 0 0 0 1 -1 0 0 0 0 0 0 0 0 0 0 0 0 0 -1 0 0 1 0 0 0 0 0 0 0 0 0 0 -1 0 0 0 0 1 -1 0 0 0 0 0 0 0 0 0 0 0 0 1 -9 6 0 0 0 0 0 0 0 0 0 0 0 1 -1 0 0 0 0 0 0 0 0 0 0 0 0 0 -1 0 0 1 0 0 0 0 0 0 0 0 0 0 0 0 -1 0 0 0 0 0 -1 1 0 0 -1 1 0 0 -1 1 0 0c-13,10 -26,19 -40,29l-62 0zm-51 -703l27 21 -28 23 28 21 -29 24 -476 0 -67 0 -78 0c-16,-30 -31,-59 -44,-89l122 0 67 0 478 0zm617 89l-98 0 -492 0 30 -24 -29 -21 29 -23 -27 -21 489 0 98 0 105 0c-14,30 -28,59 -44,89l-61 0zm-617 1142l27 20 -28 23 28 22 -29 23 -476 0 -67 0 -5 0c20,-30 41,-59 64,-88l8 0 478 0zm605 88l-86 0 -492 0 30 -23 -29 -22 29 -23 -27 -20 489 0 22 0c22,29 44,58 64,88zm-601 -396l23 47 -23 41 -290 0c31,-30 64,-59 99,-88l191 0zm337 88l-314 0 24 -41 -24 -47 215 0c34,29 67,58 99,88zm-337 527l23 47 -23 42 -486 0 -17 0 -210 0c11,-30 23,-59 36,-89l174 0 17 0 486 0zm759 89l-30 0 -276 0 -33 0 -397 0 24 -42 -24 -47 397 0 81 0 223 0c13,30 25,59 35,89zm-1326 219l590 0 -29 23 28 22 -28 23 26 20 -587 0 -208 0c2,-29 4,-59 8,-88l200 0zm617 88l-27 -20 29 -23 -29 -22 30 -23 509 0 33 0 218 0c4,29 7,59 8,88l-226 0 -33 0 -512 0zm-54 220l27 20 -28 23 28 22 -29 23 -476 0 -67 0 -189 0c-8,-30 -15,-59 -21,-88l210 0 67 0 478 0zm617 88l-98 0 -492 0 30 -23 -29 -22 29 -23 -27 -20 489 0 98 0 192 0c-5,29 -12,58 -20,88l-172 0zm-617 219l27 21 -28 23 28 21 -29 23 -476 0 -67 0 -57 0c-17,-29 -33,-58 -48,-88l105 0 67 0 478 0zm617 88l-98 0 -492 0 30 -23 -29 -21 29 -23 -27 -21 489 0 98 0 87 0c-14,30 -30,59 -47,88l-40 0zm-613 220l23 46 -23 42 -372 0c-27,-29 -54,-58 -78,-88l450 0zm419 88l-396 0 24 -42 -24 -46 397 0 77 0c-25,30 -51,59 -78,88zm-419 2988l23 47 -23 41 -364 0c28,-30 58,-59 89,-88l275 0zm411 88l-388 0 24 -41 -24 -47 298 0c31,29 61,58 90,88zm-757 -1539l-100 1 1 -1 -330 0c0,-28 1,-56 4,-84l421 0 4 -4 369 0 -23 42 23 46 -315 0 -54 0zm393 0l-24 -46 24 -42 397 0 1 2 373 0c2,29 4,57 4,86l-360 0 -18 0 -397 0zm-393 308l-100 1 1 -1 -283 0c-8,-28 -16,-56 -22,-84l400 0 4 -4 369 0 -23 41 23 47 -315 0 -54 0zm393 0l-24 -47 24 -41 397 0 1 1 353 0c-7,29 -15,58 -24,87l-312 0 -18 0 -397 0zm-51 -1010l27 20 -28 23 28 21 -29 24 -476 0 -67 0 -29 0c19,-30 39,-59 60,-88l36 0 478 0zm617 88l-98 0 -492 0 30 -24 -29 -21 29 -23 -27 -20 489 0 50 0c21,29 41,58 60,88l-12 0zm-617 2680l27 20 -28 24 28 21 -29 23 -476 0 -67 0 -187 0c8,-29 18,-59 29,-88l158 0 67 0 478 0zm617 88l-98 0 -492 0 30 -23 -29 -21 29 -24 -27 -20 489 0 98 0 141 0c11,29 20,59 29,88l-170 0zm-617 -1626l27 20 -28 24 28 21 -29 23 -476 0 -67 0 -35 0c-18,-29 -35,-58 -51,-88l86 0 67 0 478 0zm617 88l-98 0 -492 0 30 -23 -29 -21 29 -24 -27 -20 489 0 98 0 68 0c-15,30 -33,59 -51,88l-17 0zm-613 -1626l23 47 -23 41 -328 0c30,-30 61,-59 94,-88l234 0zm375 88l-352 0 24 -41 -24 -47 258 0c32,29 64,58 94,88zm-457 2065l105 0 -29 23 28 22 -19 15c-29,-19 -57,-39 -85,-60zm94 82l8 6 -18 0c3,-2 7,-4 10,-6zm16 -11l-5 -3 29 -23 -29 -22 30 -23 76 0c-6,5 -12,9 -18,13l-1 1 0 0 0 0 0 0 -1 0 0 1 0 0 -1 0 0 0 0 0 0 1 -1 0 0 0 0 0 0 0 -1 0 0 1 0 0 -1 0 0 0 0 0 0 1 -1 0 0 0 0 0 0 0 0 1 -1 0 0 0 0 0 -1 0 0 0 0 1 0 0 -1 0 0 0 0 1 0 0 -1 0 0 0 0 0 -1 1 -1 0 0 0 0 1 0 0 -1 0 0 0 0 0 -2 1 0 1 0 0 0 0 -1 0 0 0 0 0 0 1c-22,15 -44,30 -66,45zm-32 -1609l27 21 -28 23 28 21 -29 23 -476 0 -67 0 -176 0c9,-29 20,-59 32,-88l144 0 67 0 478 0zm617 88l-98 0 -492 0 30 -23 -29 -21 29 -23 -27 -21 489 0 98 0 127 0c11,29 22,59 32,88l-159 0zm-678 -961l0 0 -3 -2 0 -1 0 0 0 0 -1 0 0 0 0 0 0 0 0 -1 -1 0 0 0 0 0 -1 -1 0 0 -1 0 0 0 0 0 0 -1 0 0 -1 0 0 0 0 -1 -1 0 0 0 0 0 0 0 0 0 -1 0 0 -1 0 0 0 0 0 0 -1 0 0 0 0 0 0 -1 0 0 -1 0 0 0 0 0 0 0 0 0 -1 -1 0 0c-8,-6 -16,-12 -24,-18l-1 -1 -2 -1 -2 -2 -2 -1 -2 -1c-6,-6 -13,-11 -20,-16l154 0 -23 41 23 47 -34 0c-18,-13 -36,-25 -54,-38zm112 38l-24 -47 24 -41 130 0c-13,10 -26,20 -39,30l0 0 -1 1 0 0 0 0 0 0 -1 0 0 1 0 0 -1 0 0 0 0 0 0 1 -1 0 0 0 0 0 0 0 -1 1 0 0 0 0 -1 0 0 1 0 0 -1 0 0 1 -1 0 0 0 0 0 0 0 -1 0 0 1 0 0 0 0 -1 0 0 1 -1 0 0 0 -2 2 0 0 0 0 -1 0 0 0 -1 1 0 1 -3 2 -1 0 0 0 0 0 -1 1 0 0 0 0 0 0c-20,15 -40,29 -61,43l-10 0zm-47 2066l23 46 -23 42 -337 0c-28,-29 -56,-59 -82,-88l419 0zm383 88l-360 0 24 -42 -24 -46 397 0 46 0c-27,29 -54,59 -83,88zm-950 1757l590 0 -29 23 28 22 -28 23 26 20 -587 0 -149 0c-10,-29 -19,-58 -26,-88l175 0zm617 88l-27 -20 29 -23 -29 -22 30 -23 509 0 33 0 194 0c-8,30 -17,59 -27,88l-167 0 -33 0 -512 0zm-54 220l27 20 -28 23 28 22 -29 23 -476 0 -67 0 -11 0c-19,-29 -37,-59 -54,-88l65 0 67 0 478 0zm610 88l-91 0 -492 0 30 -23 -29 -22 29 -23 -27 -20 489 0 98 0 48 0c-17,29 -35,59 -55,88zm-952 -616l-100 1 1 -1 -330 0c0,-11 -1,-21 -1,-32 0,-17 1,-35 2,-52l424 0 4 -4 369 0 -23 42 23 46 -315 0 -54 0zm393 0l-24 -46 24 -42 397 0 1 2 375 0c2,18 2,36 2,54 0,11 0,21 0,32l-360 0 -18 0 -397 0zm-47 -703l23 47 -23 41 -486 0 -17 0 -98 0c18,-29 37,-59 57,-88l41 0 17 0 486 0z"/>
   <path class="fil3 str0" d="M5110 434c-35,126 -94,249 -172,367 -142,216 -348,414 -592,576 -241,160 -444,355 -584,568 -132,200 -209,416 -209,633 0,217 77,433 209,633 140,213 343,408 584,568 245,163 450,360 592,576 135,205 213,425 213,647 0,222 -78,443 -213,647 -142,216 -347,414 -592,576 -241,160 -444,355 -584,568 -132,200 -209,416 -209,633 0,217 77,433 209,633 41,64 89,125 141,185l-33 0c-48,-55 -91,-112 -130,-171 -134,-204 -212,-425 -212,-647 0,-222 78,-442 212,-647 143,-216 348,-413 592,-575 242,-161 445,-356 585,-569 132,-200 208,-416 208,-633 0,-217 -76,-433 -208,-633 -140,-213 -343,-408 -585,-568 -244,-162 -449,-360 -591,-576 -135,-204 -213,-425 -213,-647 0,-222 78,-442 212,-647 143,-216 348,-413 592,-576 242,-160 445,-355 585,-568 75,-113 132,-232 167,-353l26 0zm-1515 0c35,121 92,240 167,353 140,213 343,408 584,568 245,163 450,360 592,576 135,205 213,425 213,647 0,222 -78,443 -213,647 -142,216 -347,414 -592,576 -241,160 -444,355 -584,568 -132,200 -209,416 -209,633 0,217 77,433 209,633 140,213 343,408 584,569 244,162 450,359 592,575 135,205 213,425 213,647 0,222 -78,443 -213,647 -38,59 -82,116 -129,171l-33 0c52,-60 99,-121 141,-185 132,-200 208,-416 208,-633 0,-217 -76,-433 -208,-633 -140,-213 -343,-408 -585,-568 -244,-162 -449,-360 -592,-576 -134,-204 -212,-425 -212,-647 0,-222 78,-442 212,-647 143,-216 348,-413 592,-576 242,-160 445,-355 585,-568 132,-200 208,-416 208,-633 0,-217 -76,-433 -208,-633 -140,-213 -343,-408 -585,-568 -244,-162 -449,-360 -591,-576 -78,-118 -137,-241 -173,-367l27 0z"/>
  </g>
 </g>
</svg>
